<?xml version="1.0" encoding="UTF-8" standalone="no"?>
<!-- Created with Inkscape (http://www.inkscape.org/) -->

<svg
   xmlns:dc="http://purl.org/dc/elements/1.1/"
   xmlns:cc="http://creativecommons.org/ns#"
   xmlns:rdf="http://www.w3.org/1999/02/22-rdf-syntax-ns#"
   xmlns:svg="http://www.w3.org/2000/svg"
   xmlns="http://www.w3.org/2000/svg"
   xmlns:sodipodi="http://sodipodi.sourceforge.net/DTD/sodipodi-0.dtd"
   xmlns:inkscape="http://www.inkscape.org/namespaces/inkscape"
   width="132.29167mm"
   height="120.23612mm"
   viewBox="0 0 132.29167 120.23612"
   version="1.1"
   id="svg8"
   inkscape:version="0.92.4 (5da689c313, 2019-01-14)"
   sodipodi:docname="icon.svg">
  <defs
     id="defs2" />
  <sodipodi:namedview
     id="base"
     pagecolor="#ffffff"
     bordercolor="#666666"
     borderopacity="1.0"
     inkscape:pageopacity="0.0"
     inkscape:pageshadow="2"
     inkscape:zoom="0.7"
     inkscape:cx="79.925502"
     inkscape:cy="167.63679"
     inkscape:document-units="mm"
     inkscape:current-layer="layer1"
     showgrid="false"
     inkscape:window-width="1920"
     inkscape:window-height="1001"
     inkscape:window-x="-9"
     inkscape:window-y="-9"
     inkscape:window-maximized="1"
     showguides="false" />
  <metadata
     id="metadata5">
    <rdf:RDF>
      <cc:Work
         rdf:about="">
        <dc:format>image/svg+xml</dc:format>
        <dc:type
           rdf:resource="http://purl.org/dc/dcmitype/StillImage" />
        <dc:title></dc:title>
      </cc:Work>
    </rdf:RDF>
  </metadata>
  <g
     inkscape:label="Layer 1"
     inkscape:groupmode="layer"
     id="layer1"
     transform="translate(-1.0493709e-5,-176.7639)">
    <g
       id="g14855"
       transform="matrix(3.0682972,0,0,3.0682972,-313.07642,-308.50208)"
       inkscape:export-xdpi="96"
       inkscape:export-ydpi="96">
      <path
         sodipodi:nodetypes="ccccc"
         inkscape:connector-curvature="0"
         id="path14016"
         d="m 132.43205,190.22582 -1.80911,1.47087 1.29128,1.23523 1.37077,-0.0128 3.25891,-2.83911"
         style="fill:#444d5e;fill-opacity:1;stroke:#000000;stroke-width:0.26458332px;stroke-linecap:butt;stroke-linejoin:miter;stroke-opacity:1" />
      <path
         sodipodi:nodetypes="ccczc"
         inkscape:connector-curvature="0"
         id="path14012"
         d="m 124.9318,190.35946 2.79131,2.53466 1.61864,-0.0457 c 0,0 0.74191,-0.75538 1.27265,-1.15023 0.53074,-0.39485 1.81765,-1.47235 1.81765,-1.47235"
         style="fill:#6b7789;fill-opacity:1;stroke:#000000;stroke-width:0.26458332px;stroke-linecap:butt;stroke-linejoin:miter;stroke-opacity:1" />
      <path
         sodipodi:nodetypes="czzzzssc"
         inkscape:connector-curvature="0"
         id="path13998"
         d="m 106.32269,190.58796 c 0,0 26.06594,-15.38105 27.64616,-18.53647 1.58022,-3.15542 1.22908,-7.70431 1.1693,-9.08716 -0.0598,-1.38286 1.38892,-4.68442 4.91108,-4.64381 3.52215,0.0406 4.55663,2.69573 4.71063,4.10927 0.15399,1.41354 0.59045,15.40908 -0.20046,20.04522 -0.36157,2.11943 -3.65202,7.41985 -7.58377,7.61718 -6.4615,0.3243 -30.65294,0.49577 -30.65294,0.49577 z"
         style="fill:#9097ab;fill-opacity:1;stroke:#000000;stroke-width:0.26458332px;stroke-linecap:butt;stroke-linejoin:miter;stroke-opacity:1" />
      <path
         sodipodi:nodetypes="cccczzcsc"
         inkscape:connector-curvature="0"
         id="path14008"
         d="m 132.53228,173.53818 c 0,0 5.09482,0.88533 5.62936,6.03027 0.53453,5.14494 -0.11691,6.18061 -1.78736,7.71741 -0.70592,0.64944 -3.22803,2.53054 -3.94223,2.93998 0,0 4.83704,0.0184 6.23463,-0.40974 1.39758,-0.42815 5.3131,-4.16519 5.85034,-6.78149 0.53724,-2.6163 0.35109,-5.27369 0.39782,-6.63416 0.32909,-1.94564 -10.88748,-4.48797 -10.94015,-4.36701 -0.18516,0.42527 -1.41244,1.6119 -1.44241,1.50474"
         style="fill:#73798b;fill-opacity:1;stroke:#000000;stroke-width:0.26458332px;stroke-linecap:butt;stroke-linejoin:miter;stroke-opacity:1" />
      <path
         sodipodi:nodetypes="cccccc"
         inkscape:connector-curvature="0"
         id="path14000"
         d="m 103.09922,187.28586 8.34847,0.16129 -5.14124,3.11276 c 0,0 -1.41092,-0.31821 -2.27955,-0.98641 -0.86862,-0.66817 -0.92768,-2.28765 -0.92768,-2.28765 z"
         style="fill:#49505f;fill-opacity:1;stroke:#000000;stroke-width:0.26458332px;stroke-linecap:butt;stroke-linejoin:miter;stroke-opacity:1" />
      <path
         sodipodi:nodetypes="cccsc"
         inkscape:connector-curvature="0"
         id="path14002"
         d="m 102.16818,193.33891 4.13827,-2.779 7.42009,-0.0506 c 0,0 -2.53732,2.05883 -6.17186,2.53466 -2.01497,0.2638 -5.3865,0.29495 -5.3865,0.29495 z"
         style="fill:#454a5c;fill-opacity:1;stroke:#000000;stroke-width:0.26458332px;stroke-linecap:butt;stroke-linejoin:miter;stroke-opacity:1" />
      <path
         sodipodi:nodetypes="ccccc"
         inkscape:connector-curvature="0"
         id="path14004"
         d="m 114.1575,185.84929 4.51017,4.57698 3.06179,-0.0531 -5.53403,-5.75996 z"
         style="fill:#4d5365;fill-opacity:1;stroke:#000000;stroke-width:0.26458332px;stroke-linecap:butt;stroke-linejoin:miter;stroke-opacity:1" />
      <path
         sodipodi:nodetypes="ccccc"
         inkscape:connector-curvature="0"
         id="path14006"
         d="m 118.16654,183.41045 2.13816,-1.40317 8.18513,8.25195 -3.55803,0.10023 z"
         style="fill:#464c60;fill-opacity:1;stroke:#000000;stroke-width:0.26458332px;stroke-linecap:butt;stroke-linejoin:miter;stroke-opacity:1" />
      <path
         sodipodi:nodetypes="cc"
         inkscape:connector-curvature="0"
         id="path14010"
         d="m 133.96885,172.05149 10.97475,4.14268"
         style="fill:none;stroke:#000000;stroke-width:0.26458332px;stroke-linecap:butt;stroke-linejoin:miter;stroke-opacity:1" />
      <path
         sodipodi:nodetypes="cczcccccccccc"
         inkscape:connector-curvature="0"
         id="path14014"
         d="m 127.72311,192.89412 3.0706,3.29132 c 0,0 -1.82752,-0.0245 -2.07002,0.19223 -0.24251,0.21677 -0.31739,0.83057 -0.31739,0.83057 l 11.9058,-0.07 c 0,0 -0.14457,-0.80551 -0.46199,-0.98926 -0.31738,-0.18375 -3.33241,-0.0521 -3.33241,-0.0521 l -3.23271,-3.17767 -1.37077,0.0128 2.70407,3.19088 -2.08112,0.0106 -3.19542,-3.28502 z"
         style="fill:#ee752a;fill-opacity:1;stroke:#000000;stroke-width:0.26458332px;stroke-linecap:butt;stroke-linejoin:miter;stroke-opacity:1" />
      <path
         sodipodi:nodetypes="czzzcc"
         inkscape:connector-curvature="0"
         id="path14030"
         d="m 133.96885,172.05149 c 1.34546,-1.90216 1.29336,-7.22561 1.17766,-9.17904 -0.1157,-1.95343 2.17655,-4.58763 4.66886,-4.58534 2.49231,0.002 4.66189,1.33051 4.94449,3.94223 0.2826,2.61172 0.27669,10.64066 0.18374,13.96483 -2.5874,-0.99156 -9.32696,-3.60258 -10.97475,-4.14268 z"
         style="fill:#484c5c;fill-opacity:1;stroke:#000000;stroke-width:0.26458332px;stroke-linecap:butt;stroke-linejoin:miter;stroke-opacity:1" />
      <path
         sodipodi:nodetypes="ccccc"
         inkscape:connector-curvature="0"
         id="path14022"
         d="m 138.9551,164.15034 c 0,0 0.388,-1.69288 1.66589,-1.64276 1.27788,0.0501 1.69168,1.45901 1.69168,1.45901 l -1.56769,2.06666 z"
         style="fill:#a2afbb;fill-opacity:1;stroke:#000000;stroke-width:0.26458332px;stroke-linecap:butt;stroke-linejoin:miter;stroke-opacity:1" />
      <path
         sodipodi:nodetypes="ccccc"
         inkscape:connector-curvature="0"
         id="path14024"
         d="m 139.06731,164.22121 c 0,0 0.70438,-0.30438 1.65653,-0.34615 0.95214,-0.0418 1.45299,0.0915 1.45299,0.0915 l -1.43185,2.06669 z"
         style="fill:#6f7b87;fill-opacity:1;stroke:#000000;stroke-width:0.26458332px;stroke-linecap:butt;stroke-linejoin:miter;stroke-opacity:1" />
      <ellipse
         style="stroke-width:0.26458332"
         ry="0.86225814"
         rx="0.90359932"
         cy="162.91293"
         cx="137.86092"
         id="path14026" />
      <ellipse
         style="stroke-width:0.26458332"
         ry="0.77957588"
         rx="0.73232883"
         cy="162.81845"
         cx="143.50102"
         id="path14028" />
      <path
         inkscape:connector-curvature="0"
         id="path14837"
         d="m 111.44769,187.44715 2.27885,3.06216 -7.40385,0.0787 5.125,-3.14081"
         style="fill:#6f788c;fill-opacity:1;stroke:#000000;stroke-width:0.26458332px;stroke-linecap:butt;stroke-linejoin:miter;stroke-opacity:1" />
    </g>
  </g>
</svg>
